<svg class="diagram-root" style="background: #f5f6f6" xmlns="http://www.w3.org/2000/svg" xmlns:xlink="http://www.w3.org/1999/xlink"><style>.diagram-root { font-family: "Helvetica Neue", sans-serif; font-size: 12px; } .t { overflow: visible; } .t-bg { y: 40; fill: #fff;   } .th { fill: #005aa0;   } .tht { fill: #fff; font-size: 14px;  } .tf { fill: #323c46; overflow: visible; } .tf.pk { fill: #005aa0; font-weight: bold; } .tf.fk { font-weight: bold; } .ty { fill: #adb1b5; font-weight: normal; text-anchor: end; } .r { fill: transparent; stroke: #c3c3c3; stroke-width: 1; } .l { stroke: 1; } .i { fill: #c2c7ce; stroke: #c2c7ce; } .i.ix { fill: #afb3b6; stroke: #000; } .fa { fill: transparent; overflow: visible; } .fa .bg.hover { fill: #f7f7f7; } .c { cy: 12; r: 4; stroke: #d2d2dc; fill: #d2d2dc; } .hr { fill: transparent; stroke: #323c46; stroke-opacity: 0.035; stroke-width: 13; } .dc { stroke: #fa5a3c; fill: #fa5a3c; } .x { stroke: white; stroke-width: 1; } .hl .th { fill: #1b9bff; } .hl .tht {  } .fhl .bg { fill: #e7f4ff; } .fhls .bg {  } .r.hl { stroke: #1b9bff; } .dim { opacity: 0.25; }</style><g class="drawing-wrapper" transform="translate(-80, -40) scale(1,1)"><g class="rs"><path d="M 246.04 486 m -1, 0 a 1,1 0 1,0 2,0 a 1,1 0 1,0 -2,0 M 246.04 486 m -0.5, 0 a 0.5,0.5 0 1,0 1,0 a 0.5,0.5 0 1,0 -1,0  M246.04 486 L246.04 486 258.03999999999996 486 M 246.04 492 m -1, 0 a 1,1 0 1,0 2,0 a 1,1 0 1,0 -2,0 M 246.04 492 m -0.5, 0 a 0.5,0.5 0 1,0 1,0 a 0.5,0.5 0 1,0 -1,0  M246.04 492 L246.04 492 253.04 486 246.04 480 M 246.04 480 m -1, 0 a 1,1 0 1,0 2,0 a 1,1 0 1,0 -2,0 M 246.04 480 m -0.5, 0 a 0.5,0.5 0 1,0 1,0 a 0.5,0.5 0 1,0 -1,0  M258.03999999999996 486 Q 305.53 486, 353.02 482 T 448 478 M 460 478 m -1, 0 a 1,1 0 1,0 2,0 a 1,1 0 1,0 -2,0 M 460 478 m -0.5, 0 a 0.5,0.5 0 1,0 1,0 a 0.5,0.5 0 1,0 -1,0  M460 478 L460 478 448 478 M454 484 L454 484 454 472" id="h4270935272" class="r"></path><path d="M 246.04 511 m -1, 0 a 1,1 0 1,0 2,0 a 1,1 0 1,0 -2,0 M 246.04 511 m -0.5, 0 a 0.5,0.5 0 1,0 1,0 a 0.5,0.5 0 1,0 -1,0  M246.04 511 L246.04 511 258.03999999999996 511 M 246.04 517 m -1, 0 a 1,1 0 1,0 2,0 a 1,1 0 1,0 -2,0 M 246.04 517 m -0.5, 0 a 0.5,0.5 0 1,0 1,0 a 0.5,0.5 0 1,0 -1,0  M246.04 517 L246.04 517 253.04 511 246.04 505 M 246.04 505 m -1, 0 a 1,1 0 1,0 2,0 a 1,1 0 1,0 -2,0 M 246.04 505 m -0.5, 0 a 0.5,0.5 0 1,0 1,0 a 0.5,0.5 0 1,0 -1,0  M258.03999999999996 511 Q 307.28 511, 356.52 555.5 T 455 600 M 467 600 m -1, 0 a 1,1 0 1,0 2,0 a 1,1 0 1,0 -2,0 M 467 600 m -0.5, 0 a 0.5,0.5 0 1,0 1,0 a 0.5,0.5 0 1,0 -1,0  M467 600 L467 600 455 600 M461 606 L461 606 461 594" id="h1011643471" class="r"></path><path d="M 606.74 127 m -1, 0 a 1,1 0 1,0 2,0 a 1,1 0 1,0 -2,0 M 606.74 127 m -0.5, 0 a 0.5,0.5 0 1,0 1,0 a 0.5,0.5 0 1,0 -1,0  M606.74 127 L606.74 127 618.74 127 M 606.74 133 m -1, 0 a 1,1 0 1,0 2,0 a 1,1 0 1,0 -2,0 M 606.74 133 m -0.5, 0 a 0.5,0.5 0 1,0 1,0 a 0.5,0.5 0 1,0 -1,0  M606.74 133 L606.74 133 613.74 127 606.74 121 M 606.74 121 m -1, 0 a 1,1 0 1,0 2,0 a 1,1 0 1,0 -2,0 M 606.74 121 m -0.5, 0 a 0.5,0.5 0 1,0 1,0 a 0.5,0.5 0 1,0 -1,0  M618.74 127 C 669.2199999999999 127, 669.04 283, 619.04 283 M 607.04 283 m -1, 0 a 1,1 0 1,0 2,0 a 1,1 0 1,0 -2,0 M 607.04 283 m -0.5, 0 a 0.5,0.5 0 1,0 1,0 a 0.5,0.5 0 1,0 -1,0  M607.04 283 L607.04 283 619.04 283 M613.04 289 L613.04 289 613.04 277" id="h3885237381" class="r"></path><path d="M 606.74 152 m -1, 0 a 1,1 0 1,0 2,0 a 1,1 0 1,0 -2,0 M 606.74 152 m -0.5, 0 a 0.5,0.5 0 1,0 1,0 a 0.5,0.5 0 1,0 -1,0  M606.74 152 L606.74 152 618.74 152 M 606.74 158 m -1, 0 a 1,1 0 1,0 2,0 a 1,1 0 1,0 -2,0 M 606.74 158 m -0.5, 0 a 0.5,0.5 0 1,0 1,0 a 0.5,0.5 0 1,0 -1,0  M606.74 158 L606.74 158 613.74 152 606.74 146 M 606.74 146 m -1, 0 a 1,1 0 1,0 2,0 a 1,1 0 1,0 -2,0 M 606.74 146 m -0.5, 0 a 0.5,0.5 0 1,0 1,0 a 0.5,0.5 0 1,0 -1,0  M618.74 152 C 662.8867811703333 152, 662.7067811703333 283, 619.04 283 M 607.04 283 m -1, 0 a 1,1 0 1,0 2,0 a 1,1 0 1,0 -2,0 M 607.04 283 m -0.5, 0 a 0.5,0.5 0 1,0 1,0 a 0.5,0.5 0 1,0 -1,0  M607.04 283 L607.04 283 619.04 283 M613.04 289 L613.04 289 613.04 277" id="h87635045" class="r"></path><path d="M 247.04 145 m -1, 0 a 1,1 0 1,0 2,0 a 1,1 0 1,0 -2,0 M 247.04 145 m -0.5, 0 a 0.5,0.5 0 1,0 1,0 a 0.5,0.5 0 1,0 -1,0  M247.04 145 L247.04 145 259.03999999999996 145 M 247.04 151 m -1, 0 a 1,1 0 1,0 2,0 a 1,1 0 1,0 -2,0 M 247.04 151 m -0.5, 0 a 0.5,0.5 0 1,0 1,0 a 0.5,0.5 0 1,0 -1,0  M247.04 151 L247.04 151 254.04 145 247.04 139 M 247.04 139 m -1, 0 a 1,1 0 1,0 2,0 a 1,1 0 1,0 -2,0 M 247.04 139 m -0.5, 0 a 0.5,0.5 0 1,0 1,0 a 0.5,0.5 0 1,0 -1,0  M259.03999999999996 145 Q 309.53 145, 360.02 214 T 461 283 M 473 283 m -1, 0 a 1,1 0 1,0 2,0 a 1,1 0 1,0 -2,0 M 473 283 m -0.5, 0 a 0.5,0.5 0 1,0 1,0 a 0.5,0.5 0 1,0 -1,0  M473 283 L473 283 461 283 M467 289 L467 289 467 277" id="h392947547" class="r"></path><path d="M 247.04 170 m -1, 0 a 1,1 0 1,0 2,0 a 1,1 0 1,0 -2,0 M 247.04 170 m -0.5, 0 a 0.5,0.5 0 1,0 1,0 a 0.5,0.5 0 1,0 -1,0  M247.04 170 L247.04 170 259.03999999999996 170 M 247.04 176 m -1, 0 a 1,1 0 1,0 2,0 a 1,1 0 1,0 -2,0 M 247.04 176 m -0.5, 0 a 0.5,0.5 0 1,0 1,0 a 0.5,0.5 0 1,0 -1,0  M247.04 176 L247.04 176 254.04 170 247.04 164 M 247.04 164 m -1, 0 a 1,1 0 1,0 2,0 a 1,1 0 1,0 -2,0 M 247.04 164 m -0.5, 0 a 0.5,0.5 0 1,0 1,0 a 0.5,0.5 0 1,0 -1,0  M259.03999999999996 170 C 309.03999999999996 170, 309.64 361, 258.03999999999996 361 M 246.04 361 m -1, 0 a 1,1 0 1,0 2,0 a 1,1 0 1,0 -2,0 M 246.04 361 m -0.5, 0 a 0.5,0.5 0 1,0 1,0 a 0.5,0.5 0 1,0 -1,0  M246.04 361 L246.04 361 258.03999999999996 361 M252.04 367 L252.04 367 252.04 355" id="h3566687960" class="r"></path></g><g class="hrs"></g><g class="ts"><svg width="134.04" height="100" x="113" y="88" id="h3906576787" class="t"><rect height="40" width="134.04" class="th"></rect><text x="13" y="25" class="tht">Like</text><rect height="60" width="134.04" class="t-bg" y="40"></rect><text x="13" y="61" class="tf pk">user_id<tspan x="121.03999999999999" class="ty">bigint</tspan></text><path d="M7,14A2,2 0 0,1 5,12A2,2 0 0,1 7,10A2,2 0 0,1 9,12A2,2 0 0,1 7,14M12.65,10C11.83,7.67 9.61,6 7, 6A6, 6 0 0, 0 1, 12A6, 6 0 0, 0 7, 18C9.61, 18 11.83, 16.33 12.65, 14H17V18H21V14H23V10H12.65Z" class="i pk" transform="translate(72.35249999999999, 48) scale(0.65)"></path><text x="13" y="86" class="tf pk">film_id<tspan x="121.03999999999999" class="ty">bigint</tspan></text><path d="M7,14A2,2 0 0,1 5,12A2,2 0 0,1 7,10A2,2 0 0,1 9,12A2,2 0 0,1 7,14M12.65,10C11.83,7.67 9.61,6 7, 6A6, 6 0 0, 0 1, 12A6, 6 0 0, 0 7, 18C9.61, 18 11.83, 16.33 12.65, 14H17V18H21V14H23V10H12.65Z" class="i pk" transform="translate(72.35249999999999, 73) scale(0.65)"></path></svg><svg width="156.74" height="125" x="450" y="70" id="h1016576128" class="t"><rect height="40" width="156.74" class="th"></rect><text x="13" y="25" class="tht">Friendship</text><rect height="85" width="156.74" class="t-bg" y="40"></rect><text x="13" y="61" class="tf pk">user_id_1<tspan x="143.74" class="ty">bigint</tspan></text><path d="M7,14A2,2 0 0,1 5,12A2,2 0 0,1 7,10A2,2 0 0,1 9,12A2,2 0 0,1 7,14M12.65,10C11.83,7.67 9.61,6 7, 6A6, 6 0 0, 0 1, 12A6, 6 0 0, 0 7, 18C9.61, 18 11.83, 16.33 12.65, 14H17V18H21V14H23V10H12.65Z" class="i pk" transform="translate(95.05250000000001, 48) scale(0.65)"></path><text x="13" y="86" class="tf pk">user_id_2<tspan x="143.74" class="ty">bigint</tspan></text><path d="M7,14A2,2 0 0,1 5,12A2,2 0 0,1 7,10A2,2 0 0,1 9,12A2,2 0 0,1 7,14M12.65,10C11.83,7.67 9.61,6 7, 6A6, 6 0 0, 0 1, 12A6, 6 0 0, 0 7, 18C9.61, 18 11.83, 16.33 12.65, 14H17V18H21V14H23V10H12.65Z" class="i pk" transform="translate(95.05250000000001, 73) scale(0.65)"></path><text x="13" y="111" class="tf">is_confirmed<tspan x="143.74" class="ty">boolean</tspan></text></svg><svg width="134.04" height="175" x="473" y="226" id="h1537667952" class="t"><rect height="40" width="134.04" class="th"></rect><text x="13" y="25" class="tht">User</text><rect height="135" width="134.04" class="t-bg" y="40"></rect><text x="13" y="61" class="tf pk">user_id<tspan x="121.03999999999999" class="ty">bigint</tspan></text><path d="M7,14A2,2 0 0,1 5,12A2,2 0 0,1 7,10A2,2 0 0,1 9,12A2,2 0 0,1 7,14M12.65,10C11.83,7.67 9.61,6 7, 6A6, 6 0 0, 0 1, 12A6, 6 0 0, 0 7, 18C9.61, 18 11.83, 16.33 12.65, 14H17V18H21V14H23V10H12.65Z" class="i pk" transform="translate(72.35249999999999, 48) scale(0.65)"></path><text x="13" y="86" class="tf">email<tspan x="121.03999999999999" class="ty">varchar</tspan></text><text x="13" y="111" class="tf">login<tspan x="121.03999999999999" class="ty">varchar</tspan></text><text x="13" y="136" class="tf">name<tspan x="121.03999999999999" class="ty">varchar</tspan></text><text x="13" y="161" class="tf">birthday<tspan x="121.03999999999999" class="ty">date</tspan></text></svg><svg width="149.4" height="100" x="460" y="421" id="h807582512" class="t"><rect height="40" width="149.4" class="th"></rect><text x="13" y="25" class="tht">Genre</text><rect height="60" width="149.4" class="t-bg" y="40"></rect><text x="13" y="61" class="tf pk">genre_id<tspan x="136.4" class="ty">integer</tspan></text><path d="M7,14A2,2 0 0,1 5,12A2,2 0 0,1 7,10A2,2 0 0,1 9,12A2,2 0 0,1 7,14M12.65,10C11.83,7.67 9.61,6 7, 6A6, 6 0 0, 0 1, 12A6, 6 0 0, 0 7, 18C9.61, 18 11.83, 16.33 12.65, 14H17V18H21V14H23V10H12.65Z" class="i pk" transform="translate(79.70859375, 48) scale(0.65)"></path><text x="13" y="86" class="tf">name<tspan x="136.4" class="ty">varchar</tspan></text></svg><svg width="148.72" height="100" x="467" y="543" id="h3920516257" class="t"><rect height="40" width="148.72" class="th"></rect><text x="13" y="25" class="tht">Rating</text><rect height="60" width="148.72" class="t-bg" y="40"></rect><text x="13" y="61" class="tf pk">rating_id<tspan x="135.72" class="ty">integer</tspan></text><path d="M7,14A2,2 0 0,1 5,12A2,2 0 0,1 7,10A2,2 0 0,1 9,12A2,2 0 0,1 7,14M12.65,10C11.83,7.67 9.61,6 7, 6A6, 6 0 0, 0 1, 12A6, 6 0 0, 0 7, 18C9.61, 18 11.83, 16.33 12.65, 14H17V18H21V14H23V10H12.65Z" class="i pk" transform="translate(79.02859375, 48) scale(0.65)"></path><text x="13" y="86" class="tf">name<tspan x="135.72" class="ty">varchar</tspan></text></svg><svg width="144.04" height="225" x="102" y="304" id="h2744470858" class="t"><rect height="40" width="144.04" class="th"></rect><text x="13" y="25" class="tht">Film</text><rect height="185" width="144.04" class="t-bg" y="40"></rect><text x="13" y="61" class="tf pk">film_id<tspan x="131.04" class="ty">bigint</tspan></text><path d="M7,14A2,2 0 0,1 5,12A2,2 0 0,1 7,10A2,2 0 0,1 9,12A2,2 0 0,1 7,14M12.65,10C11.83,7.67 9.61,6 7, 6A6, 6 0 0, 0 1, 12A6, 6 0 0, 0 7, 18C9.61, 18 11.83, 16.33 12.65, 14H17V18H21V14H23V10H12.65Z" class="i pk" transform="translate(82.35249999999999, 48) scale(0.65)"></path><text x="13" y="86" class="tf">name<tspan x="131.04" class="ty">varchar</tspan></text><text x="13" y="111" class="tf">description<tspan x="131.04" class="ty">varchar</tspan></text><text x="13" y="136" class="tf">release_date<tspan x="131.04" class="ty">date</tspan></text><text x="13" y="161" class="tf">duration<tspan x="131.04" class="ty">integer</tspan></text><text x="13" y="186" class="tf fk">genre<tspan x="131.04" class="ty">integer</tspan></text><text x="13" y="211" class="tf fk">rating<tspan x="131.04" class="ty">integer</tspan></text></svg></g></g><text class="qdbd-link" x="10" y="20">www.quickdatabasediagrams.com</text></svg>
