<svg class="diagram-root" style="background: #f5f6f6" xmlns="http://www.w3.org/2000/svg" xmlns:xlink="http://www.w3.org/1999/xlink"><style>.diagram-root { font-family: "Helvetica Neue", sans-serif; font-size: 12px; } .t { overflow: visible; } .t-bg { y: 40; fill: #fff;   } .th { fill: #005aa0;   } .tht { fill: #fff; font-size: 14px;  } .tf { fill: #323c46; overflow: visible; } .tf.pk { fill: #005aa0; font-weight: bold; } .tf.fk { font-weight: bold; } .ty { fill: #adb1b5; font-weight: normal; text-anchor: end; } .r { fill: transparent; stroke: #c3c3c3; stroke-width: 1; } .l { stroke: 1; } .i { fill: #c2c7ce; stroke: #c2c7ce; } .i.ix { fill: #afb3b6; stroke: #000; } .fa { fill: transparent; overflow: visible; } .fa .bg.hover { fill: #f7f7f7; } .c { cy: 12; r: 4; stroke: #d2d2dc; fill: #d2d2dc; } .hr { fill: transparent; stroke: #323c46; stroke-opacity: 0.035; stroke-width: 13; } .dc { stroke: #fa5a3c; fill: #fa5a3c; } .x { stroke: white; stroke-width: 1; } .hl .th { fill: #1b9bff; } .hl .tht {  } .fhl .bg { fill: #e7f4ff; } .fhls .bg {  } .r.hl { stroke: #1b9bff; } .dim { opacity: 0.25; }</style><g class="drawing-wrapper" transform="translate(-51.25, -33.75) scale(1,1)"><g class="rs"><path d="M 246.04 486 m -1, 0 a 1,1 0 1,0 2,0 a 1,1 0 1,0 -2,0 M 246.04 486 m -0.5, 0 a 0.5,0.5 0 1,0 1,0 a 0.5,0.5 0 1,0 -1,0  M246.04 486 L246.04 486 258.03999999999996 486 M 246.04 492 m -1, 0 a 1,1 0 1,0 2,0 a 1,1 0 1,0 -2,0 M 246.04 492 m -0.5, 0 a 0.5,0.5 0 1,0 1,0 a 0.5,0.5 0 1,0 -1,0  M246.04 492 L246.04 492 253.04 486 246.04 480 M 246.04 480 m -1, 0 a 1,1 0 1,0 2,0 a 1,1 0 1,0 -2,0 M 246.04 480 m -0.5, 0 a 0.5,0.5 0 1,0 1,0 a 0.5,0.5 0 1,0 -1,0  M258.03999999999996 486 Q 289.28 486, 320.52 539.5 T 383 593 M 395 593 m -1, 0 a 1,1 0 1,0 2,0 a 1,1 0 1,0 -2,0 M 395 593 m -0.5, 0 a 0.5,0.5 0 1,0 1,0 a 0.5,0.5 0 1,0 -1,0  M395 593 L395 593 383 593 M389 599 L389 599 389 587" id="h4270935272" class="r"></path><path d="M 246.04 511 m -1, 0 a 1,1 0 1,0 2,0 a 1,1 0 1,0 -2,0 M 246.04 511 m -0.5, 0 a 0.5,0.5 0 1,0 1,0 a 0.5,0.5 0 1,0 -1,0  M246.04 511 L246.04 511 258.03999999999996 511 M 246.04 517 m -1, 0 a 1,1 0 1,0 2,0 a 1,1 0 1,0 -2,0 M 246.04 517 m -0.5, 0 a 0.5,0.5 0 1,0 1,0 a 0.5,0.5 0 1,0 -1,0  M246.04 517 L246.04 517 253.04 511 246.04 505 M 246.04 505 m -1, 0 a 1,1 0 1,0 2,0 a 1,1 0 1,0 -2,0 M 246.04 505 m -0.5, 0 a 0.5,0.5 0 1,0 1,0 a 0.5,0.5 0 1,0 -1,0  M258.03999999999996 511 C 300.96320649200794 511, 315.4052064920079 637.5, 233.97 637.5 M 221.97 637.5 m -1, 0 a 1,1 0 1,0 2,0 a 1,1 0 1,0 -2,0 M 221.97 637.5 m -0.5, 0 a 0.5,0.5 0 1,0 1,0 a 0.5,0.5 0 1,0 -1,0  M221.97 637.5 L221.97 637.5 233.97 637.5 M227.97 643.5 L227.97 643.5 227.97 631.5" id="h1011643471" class="r"></path><path d="M 650 120.75 m -1, 0 a 1,1 0 1,0 2,0 a 1,1 0 1,0 -2,0 M 650 120.75 m -0.5, 0 a 0.5,0.5 0 1,0 1,0 a 0.5,0.5 0 1,0 -1,0  M650 120.75 L650 120.75 638 120.75 M 650 126.75 m -1, 0 a 1,1 0 1,0 2,0 a 1,1 0 1,0 -2,0 M 650 126.75 m -0.5, 0 a 0.5,0.5 0 1,0 1,0 a 0.5,0.5 0 1,0 -1,0  M650 126.75 L650 126.75 643 120.75 650 114.75 M 650 114.75 m -1, 0 a 1,1 0 1,0 2,0 a 1,1 0 1,0 -2,0 M 650 114.75 m -0.5, 0 a 0.5,0.5 0 1,0 1,0 a 0.5,0.5 0 1,0 -1,0  M638 120.75 C 588 120.75, 583.95 296.75, 644.75 296.75 M 656.75 296.75 m -1, 0 a 1,1 0 1,0 2,0 a 1,1 0 1,0 -2,0 M 656.75 296.75 m -0.5, 0 a 0.5,0.5 0 1,0 1,0 a 0.5,0.5 0 1,0 -1,0  M656.75 296.75 L656.75 296.75 644.75 296.75 M650.75 302.75 L650.75 302.75 650.75 290.75" id="h3885237381" class="r"></path><path d="M 650 145.75 m -1, 0 a 1,1 0 1,0 2,0 a 1,1 0 1,0 -2,0 M 650 145.75 m -0.5, 0 a 0.5,0.5 0 1,0 1,0 a 0.5,0.5 0 1,0 -1,0  M650 145.75 L650 145.75 638 145.75 M 650 151.75 m -1, 0 a 1,1 0 1,0 2,0 a 1,1 0 1,0 -2,0 M 650 151.75 m -0.5, 0 a 0.5,0.5 0 1,0 1,0 a 0.5,0.5 0 1,0 -1,0  M650 151.75 L650 151.75 643 145.75 650 139.75 M 650 139.75 m -1, 0 a 1,1 0 1,0 2,0 a 1,1 0 1,0 -2,0 M 650 139.75 m -0.5, 0 a 0.5,0.5 0 1,0 1,0 a 0.5,0.5 0 1,0 -1,0  M638 145.75 C 588 145.75, 583.95 296.75, 644.75 296.75 M 656.75 296.75 m -1, 0 a 1,1 0 1,0 2,0 a 1,1 0 1,0 -2,0 M 656.75 296.75 m -0.5, 0 a 0.5,0.5 0 1,0 1,0 a 0.5,0.5 0 1,0 -1,0  M656.75 296.75 L656.75 296.75 644.75 296.75 M650.75 302.75 L650.75 302.75 650.75 290.75" id="h87635045" class="r"></path><path d="M 248.29 140 m -1, 0 a 1,1 0 1,0 2,0 a 1,1 0 1,0 -2,0 M 248.29 140 m -0.5, 0 a 0.5,0.5 0 1,0 1,0 a 0.5,0.5 0 1,0 -1,0  M248.29 140 L248.29 140 260.28999999999996 140 M 248.29 146 m -1, 0 a 1,1 0 1,0 2,0 a 1,1 0 1,0 -2,0 M 248.29 146 m -0.5, 0 a 0.5,0.5 0 1,0 1,0 a 0.5,0.5 0 1,0 -1,0  M248.29 146 L248.29 146 255.29 140 248.29 134 M 248.29 134 m -1, 0 a 1,1 0 1,0 2,0 a 1,1 0 1,0 -2,0 M 248.29 134 m -0.5, 0 a 0.5,0.5 0 1,0 1,0 a 0.5,0.5 0 1,0 -1,0  M260.28999999999996 140 Q 356.41 140, 452.52 218.38 T 644.75 296.75 M 656.75 296.75 m -1, 0 a 1,1 0 1,0 2,0 a 1,1 0 1,0 -2,0 M 656.75 296.75 m -0.5, 0 a 0.5,0.5 0 1,0 1,0 a 0.5,0.5 0 1,0 -1,0  M656.75 296.75 L656.75 296.75 644.75 296.75 M650.75 302.75 L650.75 302.75 650.75 290.75" id="h392947547" class="r"></path><path d="M 248.29 165 m -1, 0 a 1,1 0 1,0 2,0 a 1,1 0 1,0 -2,0 M 248.29 165 m -0.5, 0 a 0.5,0.5 0 1,0 1,0 a 0.5,0.5 0 1,0 -1,0  M248.29 165 L248.29 165 260.28999999999996 165 M 248.29 171 m -1, 0 a 1,1 0 1,0 2,0 a 1,1 0 1,0 -2,0 M 248.29 171 m -0.5, 0 a 0.5,0.5 0 1,0 1,0 a 0.5,0.5 0 1,0 -1,0  M248.29 171 L248.29 171 255.29 165 248.29 159 M 248.29 159 m -1, 0 a 1,1 0 1,0 2,0 a 1,1 0 1,0 -2,0 M 248.29 159 m -0.5, 0 a 0.5,0.5 0 1,0 1,0 a 0.5,0.5 0 1,0 -1,0  M260.28999999999996 165 C 310.28999999999996 165, 311.64 361, 258.03999999999996 361 M 246.04 361 m -1, 0 a 1,1 0 1,0 2,0 a 1,1 0 1,0 -2,0 M 246.04 361 m -0.5, 0 a 0.5,0.5 0 1,0 1,0 a 0.5,0.5 0 1,0 -1,0  M246.04 361 L246.04 361 258.03999999999996 361 M252.04 367 L252.04 367 252.04 355" id="h3566687960" class="r"></path><path d="M 389.75 376.25 m -1, 0 a 1,1 0 1,0 2,0 a 1,1 0 1,0 -2,0 M 389.75 376.25 m -0.5, 0 a 0.5,0.5 0 1,0 1,0 a 0.5,0.5 0 1,0 -1,0  M389.75 376.25 L389.75 376.25 377.75 376.25 M 389.75 382.25 m -1, 0 a 1,1 0 1,0 2,0 a 1,1 0 1,0 -2,0 M 389.75 382.25 m -0.5, 0 a 0.5,0.5 0 1,0 1,0 a 0.5,0.5 0 1,0 -1,0  M389.75 382.25 L389.75 382.25 382.75 376.25 389.75 370.25 M 389.75 370.25 m -1, 0 a 1,1 0 1,0 2,0 a 1,1 0 1,0 -2,0 M 389.75 370.25 m -0.5, 0 a 0.5,0.5 0 1,0 1,0 a 0.5,0.5 0 1,0 -1,0  M377.75 376.25 Q 347.83 376.25, 317.9 368.63 T 258.03999999999996 361 M 246.04 361 m -1, 0 a 1,1 0 1,0 2,0 a 1,1 0 1,0 -2,0 M 246.04 361 m -0.5, 0 a 0.5,0.5 0 1,0 1,0 a 0.5,0.5 0 1,0 -1,0  M246.04 361 L246.04 361 258.03999999999996 361 M252.04 367 L252.04 367 252.04 355" id="h2037138127" class="r"></path><path d="M 389.75 401.25 m -1, 0 a 1,1 0 1,0 2,0 a 1,1 0 1,0 -2,0 M 389.75 401.25 m -0.5, 0 a 0.5,0.5 0 1,0 1,0 a 0.5,0.5 0 1,0 -1,0  M389.75 401.25 L389.75 401.25 377.75 401.25 M 389.75 407.25 m -1, 0 a 1,1 0 1,0 2,0 a 1,1 0 1,0 -2,0 M 389.75 407.25 m -0.5, 0 a 0.5,0.5 0 1,0 1,0 a 0.5,0.5 0 1,0 -1,0  M389.75 407.25 L389.75 407.25 382.75 401.25 389.75 395.25 M 389.75 395.25 m -1, 0 a 1,1 0 1,0 2,0 a 1,1 0 1,0 -2,0 M 389.75 395.25 m -0.5, 0 a 0.5,0.5 0 1,0 1,0 a 0.5,0.5 0 1,0 -1,0  M377.75 401.25 C 327.75 401.25, 324.6 593, 383 593 M 395 593 m -1, 0 a 1,1 0 1,0 2,0 a 1,1 0 1,0 -2,0 M 395 593 m -0.5, 0 a 0.5,0.5 0 1,0 1,0 a 0.5,0.5 0 1,0 -1,0  M395 593 L395 593 383 593 M389 599 L389 599 389 587" id="h790102275" class="r"></path></g><g class="hrs"></g><g class="ts"><svg width="144.04" height="225" x="102" y="304" id="h2744470858" class="t"><rect height="40" width="144.04" class="th"></rect><text x="13" y="25" class="tht">Film</text><rect height="185" width="144.04" class="t-bg" y="40"></rect><text x="13" y="61" class="tf pk">film_id<tspan x="131.04" class="ty">bigint</tspan></text><path d="M7,14A2,2 0 0,1 5,12A2,2 0 0,1 7,10A2,2 0 0,1 9,12A2,2 0 0,1 7,14M12.65,10C11.83,7.67 9.61,6 7, 6A6, 6 0 0, 0 1, 12A6, 6 0 0, 0 7, 18C9.61, 18 11.83, 16.33 12.65, 14H17V18H21V14H23V10H12.65Z" class="i pk" transform="translate(82.35249999999999, 48) scale(0.65)"></path><text x="13" y="86" class="tf">name<tspan x="131.04" class="ty">varchar</tspan></text><text x="13" y="111" class="tf">description<tspan x="131.04" class="ty">varchar</tspan></text><text x="13" y="136" class="tf">release_date<tspan x="131.04" class="ty">date</tspan></text><text x="13" y="161" class="tf">duration<tspan x="131.04" class="ty">integer</tspan></text><text x="13" y="186" class="tf fk">genre<tspan x="131.04" class="ty">integer</tspan></text><text x="13" y="211" class="tf fk">rating<tspan x="131.04" class="ty">integer</tspan></text></svg><svg width="148.72" height="100" x="73.25" y="580.5" id="h3920516257" class="t"><rect height="40" width="148.72" class="th"></rect><text x="13" y="25" class="tht">Rating</text><rect height="60" width="148.72" class="t-bg" y="40"></rect><text x="13" y="61" class="tf pk">rating_id<tspan x="135.72" class="ty">integer</tspan></text><path d="M7,14A2,2 0 0,1 5,12A2,2 0 0,1 7,10A2,2 0 0,1 9,12A2,2 0 0,1 7,14M12.65,10C11.83,7.67 9.61,6 7, 6A6, 6 0 0, 0 1, 12A6, 6 0 0, 0 7, 18C9.61, 18 11.83, 16.33 12.65, 14H17V18H21V14H23V10H12.65Z" class="i pk" transform="translate(79.02859375, 48) scale(0.65)"></path><text x="13" y="86" class="tf">name<tspan x="135.72" class="ty">varchar</tspan></text></svg><svg width="156.74" height="125" x="650" y="63.75" id="h1016576128" class="t"><rect height="40" width="156.74" class="th"></rect><text x="13" y="25" class="tht">Friendship</text><rect height="85" width="156.74" class="t-bg" y="40"></rect><text x="13" y="61" class="tf pk">user_id_1<tspan x="143.74" class="ty">bigint</tspan></text><path d="M7,14A2,2 0 0,1 5,12A2,2 0 0,1 7,10A2,2 0 0,1 9,12A2,2 0 0,1 7,14M12.65,10C11.83,7.67 9.61,6 7, 6A6, 6 0 0, 0 1, 12A6, 6 0 0, 0 7, 18C9.61, 18 11.83, 16.33 12.65, 14H17V18H21V14H23V10H12.65Z" class="i pk" transform="translate(95.05250000000001, 48) scale(0.65)"></path><text x="13" y="86" class="tf pk">user_id_2<tspan x="143.74" class="ty">bigint</tspan></text><path d="M7,14A2,2 0 0,1 5,12A2,2 0 0,1 7,10A2,2 0 0,1 9,12A2,2 0 0,1 7,14M12.65,10C11.83,7.67 9.61,6 7, 6A6, 6 0 0, 0 1, 12A6, 6 0 0, 0 7, 18C9.61, 18 11.83, 16.33 12.65, 14H17V18H21V14H23V10H12.65Z" class="i pk" transform="translate(95.05250000000001, 73) scale(0.65)"></path><text x="13" y="111" class="tf">is_confirmed<tspan x="143.74" class="ty">boolean</tspan></text></svg><svg width="149.4" height="100" x="395" y="536" id="h807582512" class="t"><rect height="40" width="149.4" class="th"></rect><text x="13" y="25" class="tht">Genre</text><rect height="60" width="149.4" class="t-bg" y="40"></rect><text x="13" y="61" class="tf pk">genre_id<tspan x="136.4" class="ty">integer</tspan></text><path d="M7,14A2,2 0 0,1 5,12A2,2 0 0,1 7,10A2,2 0 0,1 9,12A2,2 0 0,1 7,14M12.65,10C11.83,7.67 9.61,6 7, 6A6, 6 0 0, 0 1, 12A6, 6 0 0, 0 7, 18C9.61, 18 11.83, 16.33 12.65, 14H17V18H21V14H23V10H12.65Z" class="i pk" transform="translate(79.70859375, 48) scale(0.65)"></path><text x="13" y="86" class="tf">name<tspan x="136.4" class="ty">varchar</tspan></text></svg><svg width="149.4" height="100" x="389.75" y="319.25" id="h1075059059" class="t"><rect height="40" width="149.4" class="th"></rect><text x="13" y="25" class="tht">Film_genre</text><rect height="60" width="149.4" class="t-bg" y="40"></rect><text x="13" y="61" class="tf pk">film_id<tspan x="136.4" class="ty">bigint</tspan></text><path d="M7,14A2,2 0 0,1 5,12A2,2 0 0,1 7,10A2,2 0 0,1 9,12A2,2 0 0,1 7,14M12.65,10C11.83,7.67 9.61,6 7, 6A6, 6 0 0, 0 1, 12A6, 6 0 0, 0 7, 18C9.61, 18 11.83, 16.33 12.65, 14H17V18H21V14H23V10H12.65Z" class="i pk" transform="translate(87.7125, 48) scale(0.65)"></path><text x="13" y="86" class="tf pk">genre_id<tspan x="136.4" class="ty">integer</tspan></text><path d="M7,14A2,2 0 0,1 5,12A2,2 0 0,1 7,10A2,2 0 0,1 9,12A2,2 0 0,1 7,14M12.65,10C11.83,7.67 9.61,6 7, 6A6, 6 0 0, 0 1, 12A6, 6 0 0, 0 7, 18C9.61, 18 11.83, 16.33 12.65, 14H17V18H21V14H23V10H12.65Z" class="i pk" transform="translate(79.70859375, 73) scale(0.65)"></path></svg><svg width="134.04" height="100" x="114.25" y="83" id="h3906576787" class="t"><rect height="40" width="134.04" class="th"></rect><text x="13" y="25" class="tht">Like</text><rect height="60" width="134.04" class="t-bg" y="40"></rect><text x="13" y="61" class="tf pk">user_id<tspan x="121.03999999999999" class="ty">bigint</tspan></text><path d="M7,14A2,2 0 0,1 5,12A2,2 0 0,1 7,10A2,2 0 0,1 9,12A2,2 0 0,1 7,14M12.65,10C11.83,7.67 9.61,6 7, 6A6, 6 0 0, 0 1, 12A6, 6 0 0, 0 7, 18C9.61, 18 11.83, 16.33 12.65, 14H17V18H21V14H23V10H12.65Z" class="i pk" transform="translate(72.35249999999999, 48) scale(0.65)"></path><text x="13" y="86" class="tf pk">film_id<tspan x="121.03999999999999" class="ty">bigint</tspan></text><path d="M7,14A2,2 0 0,1 5,12A2,2 0 0,1 7,10A2,2 0 0,1 9,12A2,2 0 0,1 7,14M12.65,10C11.83,7.67 9.61,6 7, 6A6, 6 0 0, 0 1, 12A6, 6 0 0, 0 7, 18C9.61, 18 11.83, 16.33 12.65, 14H17V18H21V14H23V10H12.65Z" class="i pk" transform="translate(72.35249999999999, 73) scale(0.65)"></path></svg><svg width="134.04" height="175" x="656.75" y="239.75" id="h1537667952" class="t"><rect height="40" width="134.04" class="th"></rect><text x="13" y="25" class="tht">User</text><rect height="135" width="134.04" class="t-bg" y="40"></rect><text x="13" y="61" class="tf pk">user_id<tspan x="121.03999999999999" class="ty">bigint</tspan></text><path d="M7,14A2,2 0 0,1 5,12A2,2 0 0,1 7,10A2,2 0 0,1 9,12A2,2 0 0,1 7,14M12.65,10C11.83,7.67 9.61,6 7, 6A6, 6 0 0, 0 1, 12A6, 6 0 0, 0 7, 18C9.61, 18 11.83, 16.33 12.65, 14H17V18H21V14H23V10H12.65Z" class="i pk" transform="translate(72.35249999999999, 48) scale(0.65)"></path><text x="13" y="86" class="tf">email<tspan x="121.03999999999999" class="ty">varchar</tspan></text><text x="13" y="111" class="tf">login<tspan x="121.03999999999999" class="ty">varchar</tspan></text><text x="13" y="136" class="tf">name<tspan x="121.03999999999999" class="ty">varchar</tspan></text><text x="13" y="161" class="tf">birthday<tspan x="121.03999999999999" class="ty">date</tspan></text></svg></g></g><text class="qdbd-link" x="10" y="20">www.quickdatabasediagrams.com</text></svg>